<?xml version="1.0" encoding="utf-8"?>
<!-- Generator: Adobe Illustrator 23.1.1, SVG Export Plug-In . SVG Version: 6.00 Build 0)  -->
<svg version="1.1" id="Layer_2" xmlns="http://www.w3.org/2000/svg" xmlns:xlink="http://www.w3.org/1999/xlink" x="0px" y="0px"
	 viewBox="0 0 182.3 40.3" style="enable-background:new 0 0 182.3 40.3;" xml:space="preserve">
<path d="M19,15c-0.1-2.6-0.6-5.2-1.6-7.6c-0.9-2.1-2.1-4-4.2-5.2c-2.4-1.4-5-1.8-7.6-0.7c-1.8,0.8-3.3,2-4.7,3.3C0.3,5.4,0,6,0,6.7
	C0,8,0,9.2,0,10.5c0,0.8,0.3,1.5,0.9,2.1c1.2,1.2,2.4,2.2,4,2.9c2,0.9,4,1.2,6.1,0.5c0.6-0.2,1.2-0.5,1.9-0.8
	c0.1,0.2,0.2,0.4,0.2,0.6c0.1,0.8,0.2,1.7,0.2,2.5c0,6.2,0.1,12.4,0.1,18.6c0,0.5,0,1.1,0,1.6c0,0.8,0.4,1.3,1.2,1.4
	c1.1,0.1,2.1,0.1,3.2,0c1-0.1,1.4-0.6,1.4-1.6C19.2,30.5,19.4,22.7,19,15z M10.1,9H7.4C7,9,6.7,8.7,6.7,8.2c0-0.4,0.3-0.8,0.8-0.8
	h2.7c0.4,0,0.8,0.3,0.8,0.8C10.9,8.7,10.5,9,10.1,9z"/>
<path d="M37.5,4.7c0-0.4-0.3-0.8-0.6-1.1c-1.3-1.1-2.8-1.9-4.3-2.6c-1.3-0.6-2.7-1-4.2-1c-1.8-0.1-3.5,0.4-5.1,1.3
	c-1.4,0.9-2.6,2-3.2,3.6c-1,2.6-0.8,5.1,0.6,7.5c0.1,0.2,0.2,0.5,0.2,0.8c0,5.2,0,10.4,0.1,15.6c0,3.3,0,6.5,0,9.8
	c0,1,0.3,1.5,1.3,1.6c1,0.1,2,0.1,3.1,0.1c0.3,0,0.7-0.1,1-0.3c0.5-0.3,0.6-0.9,0.6-1.5c0-6.5,0-13,0-19.5c0-0.9,0-1.8,0-2.7
	c1.2-0.1,2.2-0.1,3.1-0.3c2.8-0.6,5-2.1,7-4c0.3-0.3,0.5-0.7,0.5-1C37.6,8.9,37.6,6.8,37.5,4.7z M25.9,8.6h-3.4
	c-0.4,0-0.8-0.3-0.8-0.8c0-0.4,0.3-0.8,0.8-0.8h3.4c0.4,0,0.8,0.3,0.8,0.8C26.7,8.2,26.3,8.6,25.9,8.6z"/>
<g>
	<path d="M47.4,14.6h2.4v16.8h8.1v2H47.4V14.6z"/>
	<path d="M71.4,29.7c0,1.4,0,2.6,0.1,3.7h-2.2l-0.1-2.2h-0.1c-0.6,1.1-2.1,2.5-4.5,2.5c-2.1,0-4.7-1.2-4.7-5.9v-7.9h2.5v7.5
		c0,2.6,0.8,4.3,3,4.3c1.7,0,2.8-1.1,3.2-2.2c0.1-0.4,0.2-0.8,0.2-1.3v-8.3h2.5V29.7z"/>
	<path d="M76.6,19.9l1.9,2.9c0.5,0.8,0.9,1.5,1.4,2.2H80c0.4-0.8,0.9-1.5,1.3-2.2l1.9-2.9h2.7l-4.6,6.6l4.8,7h-2.8l-2-3.1
		c-0.5-0.8-1-1.5-1.5-2.4h-0.1c-0.4,0.8-0.9,1.5-1.4,2.4l-2,3.1h-2.7l4.8-6.9l-4.6-6.6H76.6z"/>
	<path d="M97.5,27.5l-2,5.9H93l6.4-18.9h2.9l6.4,18.9h-2.6l-2-5.9H97.5z M103.7,25.6l-1.8-5.4c-0.4-1.2-0.7-2.4-1-3.4h-0.1
		c-0.3,1.1-0.6,2.3-1,3.4L98,25.6H103.7z"/>
	<path d="M114.2,16.1c0,0.8-0.6,1.5-1.6,1.5c-0.9,0-1.5-0.7-1.5-1.5c0-0.9,0.6-1.5,1.5-1.5C113.6,14.5,114.2,15.2,114.2,16.1z
		 M111.4,33.4V19.9h2.5v13.6H111.4z"/>
	<path d="M118,24.1c0-1.6,0-3-0.1-4.2h2.2l0.1,2.7h0.1c0.6-1.8,2.1-3,3.8-3c0.3,0,0.5,0,0.7,0.1V22c-0.3-0.1-0.5-0.1-0.8-0.1
		c-1.7,0-3,1.3-3.3,3.2c-0.1,0.3-0.1,0.7-0.1,1.1v7.2H118V24.1z"/>
	<path d="M127.3,24.3c0-1.7-0.1-3.1-0.1-4.4h2.2l0.1,2.3h0.1c1-1.7,2.6-2.6,4.8-2.6c3.3,0,5.7,2.8,5.7,6.9c0,4.9-3,7.3-6.2,7.3
		c-1.8,0-3.4-0.8-4.2-2.1h-0.1V39h-2.4V24.3z M129.7,27.9c0,0.4,0.1,0.7,0.1,1c0.4,1.7,1.9,2.9,3.7,2.9c2.6,0,4.1-2.1,4.1-5.2
		c0-2.7-1.4-5-4-5c-1.7,0-3.2,1.2-3.7,3.1c-0.1,0.3-0.2,0.7-0.2,1V27.9z"/>
	<path d="M155.5,26.5c0,5-3.5,7.2-6.7,7.2c-3.7,0-6.5-2.7-6.5-7c0-4.5,3-7.2,6.7-7.2C152.8,19.6,155.5,22.4,155.5,26.5z M144.7,26.7
		c0,3,1.7,5.2,4.1,5.2c2.4,0,4.1-2.2,4.1-5.3c0-2.3-1.1-5.2-4.1-5.2C146,21.4,144.7,24.1,144.7,26.7z"/>
	<path d="M170.3,13.5v16.4c0,1.2,0,2.6,0.1,3.5h-2.2l-0.1-2.4H168c-0.8,1.5-2.4,2.7-4.6,2.7c-3.3,0-5.8-2.8-5.8-6.9
		c0-4.5,2.8-7.3,6.1-7.3c2.1,0,3.5,1,4.1,2.1h0.1v-8.1H170.3z M167.8,25.4c0-0.3,0-0.7-0.1-1c-0.4-1.6-1.7-2.9-3.6-2.9
		c-2.5,0-4.1,2.2-4.1,5.2c0,2.7,1.3,5,4,5c1.7,0,3.2-1.1,3.6-2.9c0.1-0.3,0.1-0.7,0.1-1.1V25.4z"/>
	<path d="M174,30.9c0.7,0.5,2,1,3.2,1c1.8,0,2.6-0.9,2.6-2c0-1.2-0.7-1.8-2.5-2.5c-2.4-0.9-3.6-2.2-3.6-3.8c0-2.2,1.8-4,4.7-4
		c1.4,0,2.6,0.4,3.3,0.8l-0.6,1.8c-0.5-0.3-1.5-0.8-2.8-0.8c-1.5,0-2.3,0.8-2.3,1.8c0,1.1,0.8,1.6,2.6,2.3c2.4,0.9,3.6,2.1,3.6,4.1
		c0,2.4-1.8,4.1-5.1,4.1c-1.5,0-2.9-0.4-3.8-0.9L174,30.9z"/>
</g>
</svg>
